# Mesh "IceWall_Bunker_New" exported with Unity Assets Bundle Extractor; 280 vertices, 1188 indices, 448 bits per vertex
g IceWall_Bunker_New
# SubMesh 0
# Vertices
v 1.748924 0.323599 -0.554288
vt 0.161818 0.172930
vn 0.025122 -0.072103 -0.997081
v 1.603012 0.081289 -0.475693
vt 0.190500 0.134499
vn -0.277540 -0.606526 -0.745049
v 1.900070 0.123414 -0.451977
vt 0.137717 0.136074
vn 0.667216 -0.489248 -0.561658
v 1.920914 0.523262 -0.492807
vt 0.131492 0.204532
vn 0.729181 0.148714 -0.667966
v 1.633667 1.079052 -0.422258
vt 0.175836 0.299674
vn -0.251415 -0.033248 -0.967308
v 1.881676 0.724752 -0.451479
vt 0.136704 0.238906
vn 0.733495 0.293214 -0.613198
v 1.481010 0.374197 -0.446337
vt 0.206620 0.184771
vn -0.589707 -0.004048 -0.807607
v 1.359318 0.085842 -0.223199
vt 0.249927 0.139723
vn -0.605827 -0.490864 -0.626120
v 1.288116 0.380313 -0.240646
vt 0.252077 0.190537
vn -0.675236 -0.050274 -0.735887
v 0.893639 0.197838 0.115221
vt 0.341824 0.169411
vn -0.614160 -0.279663 -0.737968
v 0.973824 0.676784 0.071268
vt 0.320106 0.246617
vn -0.686792 0.028846 -0.726282
v 1.250448 0.968839 -0.202556
vt 0.251092 0.288388
vn -0.605855 0.019552 -0.795335
v 1.202507 1.552648 -0.143165
vt 0.254044 0.385393
vn -0.658227 0.075089 -0.749066
v 1.047106 1.064957 -0.003281
vt 0.296833 0.309051
vn -0.714397 0.017258 -0.699527
v 0.808465 1.026129 0.247212
vt 0.355322 0.308547
vn -0.646761 0.058864 -0.760418
v 0.586984 0.454217 0.397446
vt 0.405741 0.216518
vn -0.434792 0.038205 -0.899720
v 0.505854 0.868305 0.418795
vt 0.415934 0.286087
vn -0.289702 0.009027 -0.957074
v 0.725449 1.348720 0.359447
vt 0.372771 0.365895
vn -0.535426 0.052546 -0.842946
v 0.177201 0.319829 0.469385
vt 0.474011 0.196203
vn -0.071566 -0.065723 -0.995268
v 0.163474 0.002665 0.507785
vt 0.476685 0.144480
vn -0.130055 -0.765476 -0.630185
v 0.497722 0.082741 0.390825
vt 0.420116 0.156553
vn -0.311128 -0.334373 -0.889604
v 0.031941 0.813656 0.475231
vt 0.497518 0.278953
vn -0.051985 -0.008857 -0.998609
v -0.181611 1.409031 0.477852
vt 0.533506 0.383056
vn 0.018148 0.132486 -0.991019
v -0.205719 0.068587 0.509022
vt 0.534792 0.153247
vn 0.072256 -0.769355 -0.634722
v 0.826245 1.669691 0.267513
vt 0.343466 0.417618
vn -0.676293 0.032532 -0.735914
v 0.615311 1.846153 0.444433
vt 0.387329 0.453474
vn -0.482146 0.095904 -0.870826
v 1.403038 2.316047 -0.168926
vt 0.210700 0.504894
vn -0.406593 0.558137 -0.723302
v 0.289423 1.582957 0.494282
vt 0.449358 0.412414
vn -0.156913 0.156790 -0.975087
v 0.198069 1.919188 0.594287
vt 0.464397 0.476616
vn -0.165488 0.282398 -0.944915
v 1.132996 2.217043 0.036509
vt 0.267521 0.497892
vn -0.640303 0.399549 -0.656028
v 1.285652 2.394161 0.106649
vt 0.249420 0.534461
vn -0.239846 0.958964 0.151205
v 1.201664 2.315114 0.178810
vt 0.270650 0.528160
vn -0.503714 0.860839 -0.072314
v 1.430199 2.410089 -0.011418
vt 0.217812 0.532821
vn 0.026269 0.999410 -0.022135
v 1.609253 2.351635 -0.157404
vt 0.179542 0.515666
vn 0.456200 0.811297 -0.365620
v 1.687057 1.986526 -0.377884
vt 0.159751 0.447783
vn 0.072964 0.357415 -0.931091
v 0.380333 2.277139 0.622980
vt 0.423590 0.532625
vn -0.558483 0.524741 -0.642451
v 0.694416 2.309239 0.430760
vt 0.365133 0.527783
vn -0.269113 0.593900 -0.758196
v 0.813702 2.124475 0.280694
vt 0.336258 0.494832
vn -0.572233 0.363686 -0.735039
v 1.112747 2.330539 0.250487
vt 0.288167 0.530983
vn -0.013173 0.991014 0.133110
v 0.266922 2.221613 0.804484
vt 0.456679 0.539886
vn -0.181232 0.945858 0.269273
v 0.922325 2.209694 0.403435
vt 0.329365 0.524595
vn 0.105969 0.985761 -0.130558
v 0.844921 2.312727 0.462305
vt 0.344935 0.538002
vn 0.471629 0.814145 -0.338724
v 0.675064 2.413987 0.609991
vt 0.377951 0.557489
vn 0.152673 0.987781 0.031291
v 0.503277 2.368813 0.741508
vt 0.412803 0.561596
vn 0.091039 0.995815 0.007973
v 0.405991 2.408149 0.801131
vt 0.430735 0.567142
vn -0.129350 0.935418 0.329032
v 0.300491 2.341805 0.806951
vt 0.446630 0.556142
vn -0.721951 0.597897 0.348290
v 1.794312 2.033939 -0.316614
vt 0.142765 0.460943
vn 0.698662 0.417931 -0.580693
v 1.806358 1.786495 -0.358509
vt 0.133366 0.420349
vn 0.845849 0.306052 -0.436890
v 1.739304 1.494213 -0.556416
vt 0.147243 0.365694
vn -0.025908 0.073987 -0.996923
v 1.856438 1.673997 -0.418809
vt 0.125707 0.398971
vn 0.673233 0.427484 -0.603336
v 1.851318 1.589551 -0.425901
vt 0.123489 0.384407
vn 0.739093 0.158022 -0.654806
v 1.906960 1.428302 -0.481519
vt 0.121515 0.351589
vn 0.745315 -0.021619 -0.666362
v 1.830894 1.116533 -0.402720
vt 0.142274 0.302271
vn 0.714500 -0.264008 -0.647911
v 1.835564 0.923930 -0.379900
vt 0.141467 0.273865
vn 0.860395 0.239637 -0.449771
v -0.190250 2.193356 0.692791
vt 0.534232 0.526704
vn -0.012798 0.614554 -0.788771
v 0.075083 2.299484 0.681818
vt 0.491029 0.538752
vn 0.130165 0.628071 -0.767192
v -0.067574 2.321008 0.783804
vt 0.511739 0.550171
vn -0.400860 0.914806 -0.049417
v 0.129841 2.349508 0.794225
vt 0.481715 0.554947
vn 0.314689 0.944908 -0.090105
v -0.149471 2.231946 0.879784
vt 0.527229 0.557703
vn -0.110060 0.671536 0.732753
v -0.468557 2.380862 0.878537
vt 0.577346 0.572819
vn 0.189043 0.926359 0.325763
v -0.735315 2.358494 0.762323
vt 0.622649 0.561131
vn -0.258806 0.960093 -0.106025
v -0.576485 2.217043 0.627892
vt 0.601618 0.526640
vn 0.169893 0.558974 -0.811594
v -0.619339 1.376949 0.448604
vt 0.611202 0.376696
vn 0.285482 0.111111 -0.951921
v -0.423187 0.652691 0.466843
vt 0.574990 0.250864
vn 0.190959 0.008566 -0.981561
v -0.911636 0.793405 0.288452
vt 0.663120 0.272606
vn 0.476329 0.112173 -0.872082
v -1.146450 0.320137 0.046013
vt 0.712685 0.189408
vn 0.693279 -0.035269 -0.719806
v -1.130280 1.040881 0.154595
vt 0.708279 0.310860
vn 0.656156 -0.024411 -0.754231
v -1.000038 1.233143 0.209984
vt 0.687986 0.346192
vn 0.592551 -0.039524 -0.804563
v -0.741447 0.143840 0.410942
vt 0.622561 0.163090
vn 0.372229 -0.343082 -0.862404
v -0.508049 0.047351 0.459869
vt 0.584231 0.150234
vn 0.130402 -0.647594 -0.750745
v -1.297958 0.813656 -0.099518
vt 0.755335 0.267841
vn 0.772521 0.043745 -0.633480
v -1.566490 0.903735 -0.388458
vt 0.822597 0.276297
vn 0.703744 -0.012927 -0.710336
v -1.664635 1.184407 -0.507950
vt 0.852971 0.321164
vn 0.422339 -0.051416 -0.904979
v -1.536865 0.379403 -0.426743
vt 0.814217 0.189090
vn 0.682121 0.005278 -0.731220
v -1.474297 0.006372 -0.312576
vt 0.788257 0.130518
vn 0.482678 -0.710549 -0.511998
v -1.178490 0.003005 0.063339
vt 0.710612 0.136694
vn 0.525849 -0.767082 -0.367516
v -1.045139 0.050526 0.187302
vt 0.682732 0.146020
vn 0.516544 -0.694193 -0.501277
v -1.688881 0.021564 -0.480538
vt 0.832800 0.128765
vn 0.298577 -0.682652 -0.666962
v -1.787544 0.441900 -0.630783
vt 0.863915 0.192548
vn 0.179306 0.169420 -0.969096
v -1.733620 0.595458 -0.519379
vt 0.853465 0.220853
vn 0.319516 0.223970 -0.920732
v -1.897667 0.734782 -0.491257
vt 0.883184 0.241689
vn -0.561099 0.080675 -0.823808
v -1.921623 0.981951 -0.494552
vt 0.891467 0.281656
vn -0.556429 0.107495 -0.823913
v -1.925102 0.621962 -0.533676
vt 0.886338 0.222699
vn -0.611674 0.164711 -0.773773
v -1.912407 0.536938 -0.533646
vt 0.883907 0.209412
vn -0.529754 0.421644 -0.735919
v -1.949219 0.219787 -0.562424
vt 0.881511 0.152944
vn -0.520251 -0.270888 -0.809913
v -1.875984 0.007595 -0.482071
vt 0.861759 0.119688
vn -0.227114 -0.793635 -0.564414
v -1.949486 0.455206 -0.582962
vt 0.888645 0.191932
vn -0.579634 0.278066 -0.765966
v -1.887260 1.165643 -0.447067
vt 0.891325 0.312290
vn -0.863791 -0.052120 -0.501147
v -1.980049 1.323931 -0.538147
vt 0.908798 0.341156
vn -0.787528 -0.399786 -0.469010
v -1.794151 1.423112 -0.608536
vt 0.879956 0.358677
vn 0.240491 -0.009156 -0.970608
v -1.991928 1.575665 -0.543426
vt 0.910526 0.385045
vn -0.701549 0.144300 -0.697858
v -1.774559 1.762108 -0.501495
vt 0.872281 0.413780
vn 0.284947 0.381042 -0.879552
v -1.974335 1.777104 -0.468368
vt 0.904362 0.421377
vn -0.631516 0.421695 -0.650662
v -1.481560 1.571515 -0.272210
vt 0.809293 0.389836
vn 0.706497 0.084206 -0.702688
v -1.919052 1.902808 -0.406357
vt 0.891884 0.443226
vn -0.646977 0.401625 -0.648165
v -1.578584 1.917095 -0.310903
vt 0.832560 0.446244
vn 0.604665 0.230920 -0.762271
v -1.392426 2.250784 -0.041046
vt 0.785108 0.506045
vn 0.430731 0.592682 -0.680587
v -0.825516 1.676431 0.397957
vt 0.652249 0.427720
vn 0.562884 0.154756 -0.811919
v -1.030312 2.309239 0.441857
vt 0.691487 0.533866
vn 0.704234 0.655568 -0.272551
v -1.607925 2.263094 -0.053253
vt 0.817072 0.516623
vn 0.164412 0.976336 -0.140485
v -1.681061 2.349508 -0.131759
vt 0.837116 0.525851
vn 0.220892 0.971635 0.084447
v -1.754692 2.128802 -0.406006
vt 0.867445 0.478275
vn 0.387930 0.260220 -0.884192
v -1.838898 2.321008 -0.313507
vt 0.874550 0.513490
vn -0.295119 0.889297 -0.349364
v -1.543846 2.298775 0.032975
vt 0.800934 0.528285
vn -0.305055 0.922693 -0.235751
v -1.432583 2.383970 0.184904
vt 0.769333 0.545312
vn -0.283706 0.957780 0.046564
v -1.226982 2.413987 0.434235
vt 0.717558 0.558376
vn -0.129624 0.980493 0.147756
v -1.049385 2.312727 0.576661
vt 0.677994 0.548631
vn 0.446132 0.708966 0.546199
v -0.976135 2.209694 0.604500
vt 0.664456 0.535002
vn 0.219403 0.974868 0.038668
v -0.859299 2.025392 0.432308
vt 0.659308 0.488561
vn 0.331734 0.298382 -0.894942
v -1.930321 2.091293 -0.413131
vt 0.894724 0.474032
vn -0.662747 0.171512 -0.728938
v 1.883110 0.081289 -0.220072
vt 0.824630 0.084771
vn 0.748878 -0.580369 0.319929
v 1.638885 -0.000000 -0.200759
vt 0.787547 0.063575
vn 0.117913 -0.992660 -0.026884
v 1.515877 0.009215 0.016633
vt 0.749964 0.082672
vn 0.263548 -0.922945 0.280562
v 1.282120 -0.000000 0.121330
vt 0.706808 0.075232
vn 0.042548 -0.996169 0.076397
v 1.402103 0.105983 0.306020
vt 0.707462 0.118102
vn 0.595743 -0.249708 0.763372
v 1.708336 0.096105 -0.023790
vt 0.782343 0.099582
vn 0.628736 -0.492910 0.601440
v 1.822578 0.042609 -0.377855
vt 0.827888 0.057349
vn 0.330567 -0.902588 -0.275790
v 1.900070 0.123414 -0.451977
vt 0.848696 0.053679
vn 0.667216 -0.489248 -0.561658
v 1.385483 0.009217 -0.139938
vt 0.746819 0.047222
vn -0.274457 -0.914531 -0.297164
v 1.603012 0.081289 -0.475693
vt 0.810704 0.023088
vn -0.277540 -0.606526 -0.745049
v 1.359318 0.085842 -0.223199
vt 0.750988 0.027193
vn -0.605827 -0.490864 -0.626120
v 1.067623 0.047347 0.100776
vt 0.676934 0.050417
vn -0.400858 -0.800473 -0.445596
v 0.760499 0.008453 0.418370
vt 0.601694 0.071341
vn -0.112481 -0.953828 -0.278496
v 1.014020 0.003880 0.528578
vt 0.630875 0.110542
vn -0.019682 -0.999799 0.003792
v 0.733204 0.013770 0.808834
vt 0.567049 0.128384
vn 0.298155 -0.637565 0.710362
v 0.322552 -0.009066 0.706231
vt 0.512725 0.084653
vn -0.024380 -0.995607 0.090400
v 0.506850 0.006747 0.834473
vt 0.531994 0.115581
vn 0.123562 -0.711792 0.691437
v 0.297686 0.046493 0.896308
vt 0.500706 0.112969
vn 0.096265 -0.585581 0.804877
v -0.032015 0.042138 0.892031
vt 0.453970 0.102585
vn 0.022902 -0.707785 0.706056
v -0.048125 0.020376 0.731821
vt 0.453440 0.077073
vn -0.044018 -0.999030 -0.001183
v 0.163474 0.002665 0.507785
vt 0.497377 0.042588
vn -0.130055 -0.765476 -0.630185
v -0.205719 0.068587 0.509022
vt 0.424500 0.035944
vn 0.072256 -0.769355 -0.634722
v 0.497722 0.082741 0.390825
vt 0.562477 0.042248
vn -0.311128 -0.334373 -0.889604
v 0.893639 0.197838 0.115221
vt 0.647508 0.022101
vn -0.614160 -0.279663 -0.737968
v -0.355644 -0.000001 0.844791
vt 0.405893 0.098566
vn 0.001803 -0.901363 0.433060
v -0.558304 -0.000000 0.661640
vt 0.367506 0.077051
vn 0.041165 -0.997245 -0.061707
v -0.581093 0.016201 0.844019
vt 0.373030 0.106446
vn -0.181812 -0.762185 0.621304
v -0.971069 0.007753 0.600906
vt 0.302428 0.092974
vn -0.217857 -0.917822 0.331876
v -0.853374 0.003878 0.475213
vt 0.309685 0.065684
vn 0.142996 -0.945745 -0.291752
v -1.261735 0.021239 0.436378
vt 0.251019 0.097393
vn -0.364888 -0.776895 0.513118
v -1.045139 0.050526 0.187302
vt 0.253663 0.043479
vn 0.516544 -0.694193 -0.501277
v -1.178490 0.003005 0.063339
vt 0.221800 0.044635
vn 0.525849 -0.767082 -0.367516
v -1.498840 -0.009066 -0.039780
vt 0.173696 0.067974
vn 0.016303 -0.999734 -0.016335
v -1.604825 -0.008485 0.178001
vt 0.184904 0.103922
vn -0.520851 -0.750891 0.406051
v -1.811546 0.004190 -0.122109
vt 0.129407 0.093129
vn -0.444166 -0.825090 0.349202
v -1.875984 0.007595 -0.482071
vt 0.082290 0.059918
vn -0.227114 -0.793635 -0.564414
v -2.000153 0.041110 -0.373245
vt 0.080010 0.086493
vn -0.797789 -0.601864 -0.035957
v -1.474297 0.006372 -0.312576
vt 0.146517 0.034742
vn 0.482678 -0.710549 -0.511998
v -1.688881 0.021564 -0.480538
vt 0.103581 0.038712
vn 0.298577 -0.682652 -0.666962
v -0.741447 0.143840 0.410942
vt 0.320502 0.034211
vn 0.372229 -0.343082 -0.862404
v -0.508049 0.047351 0.459869
vt 0.366441 0.039679
vn 0.130402 -0.647594 -0.750745
v 1.014020 0.003880 0.528578
vt 0.630875 0.110542
vn 0.478535 -0.718425 0.504846
v 1.402103 0.105983 0.306020
vt 0.707462 0.118102
vn 0.478535 -0.718425 0.504846
v 1.014020 0.003880 0.528578
vt 0.630875 0.110542
vn 0.382496 -0.886547 0.260251
v 1.402103 0.105983 0.306020
vt 0.707462 0.118102
vn 0.382496 -0.886547 0.260251
v 1.961349 0.323599 -0.322379
vt 0.917741 0.630210
vn 0.991920 -0.057182 0.113248
v 1.900070 0.123414 -0.451977
vt 0.938973 0.595266
vn 0.667216 -0.489248 -0.561658
v 1.883110 0.081289 -0.220072
vt 0.897771 0.589415
vn 0.748878 -0.580369 0.319929
v 1.920914 0.523262 -0.492807
vt 0.946744 0.663943
vn 0.729181 0.148714 -0.667966
v 1.901070 0.708982 -0.242893
vt 0.903714 0.693741
vn 0.960824 0.185160 0.206236
v 1.881676 0.724752 -0.451479
vt 0.938210 0.698724
vn 0.733495 0.293214 -0.613198
v 1.813103 0.374197 -0.073915
vt 0.870160 0.638906
vn 0.775212 -0.048866 0.629808
v 1.708336 0.096105 -0.023790
vt 0.852589 0.591907
vn 0.628736 -0.492910 0.601440
v 1.778801 0.861255 0.005301
vt 0.858677 0.720474
vn 0.778833 0.102896 0.618734
v 1.835564 0.923930 -0.379900
vt 0.923243 0.732564
vn 0.860395 0.239637 -0.449771
v 1.402103 0.105983 0.306020
vt 0.776654 0.594222
vn 0.595743 -0.249708 0.763372
v 1.830711 1.084862 -0.182473
vt 0.889187 0.759544
vn 0.943526 -0.044380 0.328313
v 1.598892 1.125523 0.091148
vt 0.827316 0.765941
vn 0.718506 0.055730 0.693285
v 1.830894 1.116533 -0.402720
vt 0.927557 0.763176
vn 0.714500 -0.264008 -0.647911
v 1.958794 1.494212 -0.310383
vt 0.916951 0.827565
vn 0.984340 0.112958 0.135334
v 1.809963 1.722625 -0.188749
vt 0.887880 0.866738
vn 0.914891 0.086369 0.394354
v 1.906960 1.428302 -0.481519
vt 0.945029 0.816410
vn 0.745315 -0.021619 -0.666362
v 1.851318 1.589551 -0.425901
vt 0.936841 0.848597
vn 0.739093 0.158022 -0.654806
v 1.856438 1.673997 -0.418809
vt 0.930331 0.861925
vn 0.673233 0.427484 -0.603336
v 1.806358 1.786495 -0.358509
vt 0.916717 0.880476
vn 0.845849 0.306052 -0.436890
v 1.835548 1.986526 -0.206639
vt 0.890446 0.911179
vn 0.972439 0.195765 0.126645
v 1.794312 2.033939 -0.316614
vt 0.906719 0.923875
vn 0.698662 0.417931 -0.580693
v 1.609253 2.351635 -0.157404
vt 0.864185 0.978570
vn 0.456200 0.811297 -0.365620
v 1.579216 2.316047 0.046937
vt 0.832277 0.965055
vn 0.633658 0.586189 0.504837
v 1.657745 1.956236 0.094666
vt 0.833912 0.904361
vn 0.754498 0.095723 0.649284
v 1.430199 2.410089 -0.011418
vt 0.822440 0.992956
vn 0.026269 0.999410 -0.022135
v 1.095921 1.783184 0.563269
vt 0.711906 0.879436
vn 0.610768 0.085554 0.787174
v 1.285652 2.394161 0.106649
vt 0.789684 0.991411
vn -0.239846 0.958964 0.151205
v 1.022095 2.124475 0.548211
vt 0.704431 0.938700
vn 0.566411 0.463968 0.681111
v 0.606420 2.278053 0.831867
vt 0.619986 0.961807
vn 0.350326 0.409324 0.842452
v 1.060923 1.466393 0.619040
vt 0.701072 0.825871
vn 0.552384 -0.004791 0.833576
v 0.579949 1.532971 0.822196
vt 0.613317 0.837851
vn 0.355717 -0.052316 0.933128
v 1.201664 2.315114 0.178810
vt 0.767327 0.985437
vn -0.503714 0.860839 -0.072314
v 0.499537 1.795317 0.862659
vt 0.599125 0.882199
vn 0.307212 -0.007956 0.951608
v 0.523169 1.215695 0.819197
vt 0.603944 0.784324
vn 0.351613 0.032105 0.935595
v 0.778754 1.103572 0.722244
vt 0.649977 0.765186
vn 0.407017 0.076137 0.910242
v 0.676525 0.615215 0.848077
vt 0.625210 0.682549
vn 0.291823 0.015702 0.956343
v 0.211456 1.231381 0.927749
vt 0.548219 0.787311
vn 0.131909 0.000020 0.991262
v 0.506850 0.006747 0.834473
vt 0.596131 0.580267
vn 0.123562 -0.711792 0.691437
v 0.788627 0.413542 0.796057
vt 0.644867 0.648334
vn 0.437625 -0.050556 0.897735
v 0.967125 0.793404 0.692303
vt 0.680141 0.711829
vn 0.545783 0.031217 0.837345
v 1.267666 1.179613 0.460966
vt 0.743697 0.776329
vn 0.667739 0.054995 0.742361
v 0.733204 0.013770 0.808834
vt 0.635020 0.581253
vn 0.298155 -0.637565 0.710362
v 1.216892 0.436673 0.396774
vt 0.743201 0.650432
vn 0.626734 -0.028199 0.778723
v 1.541117 0.622341 0.159520
vt 0.810614 0.681286
vn 0.633471 -0.019921 0.773510
v 0.166885 0.379403 0.945015
vt 0.537520 0.643997
vn 0.117700 -0.026869 0.992686
v 0.297686 0.046493 0.896308
vt 0.559318 0.587743
vn 0.096265 -0.585581 0.804877
v -0.032015 0.042138 0.892031
vt 0.502962 0.587174
vn 0.022902 -0.707785 0.706056
v -0.421249 0.155665 0.932955
vt 0.437982 0.608707
vn -0.111077 -0.209275 0.971527
v -0.328514 0.864757 0.888779
vt 0.456098 0.726862
vn -0.018137 -0.068330 0.997498
v -0.355644 -0.000001 0.844791
vt 0.446993 0.578527
vn 0.001803 -0.901363 0.433060
v -0.581093 0.016201 0.844019
vt 0.407786 0.584759
vn -0.181812 -0.762185 0.621304
v -1.005150 0.170813 0.763801
vt 0.337623 0.614464
vn -0.502620 -0.314769 0.805166
v -0.793949 0.482940 0.844852
vt 0.375429 0.665956
vn -0.306996 -0.001017 0.951710
v -1.071373 0.506405 0.715019
vt 0.323644 0.669628
vn -0.560960 0.073549 0.824569
v -1.226997 0.793404 0.571854
vt 0.288218 0.717697
vn -0.649962 -0.023625 0.759599
v -1.426414 0.615215 0.345909
vt 0.237697 0.686981
vn -0.661956 -0.057558 0.747330
v -0.971069 0.007753 0.600906
vt 0.327964 0.577593
vn -0.217857 -0.917822 0.331876
v -1.261735 0.021239 0.436378
vt 0.270601 0.586096
vn -0.364888 -0.776895 0.513118
v -1.515167 0.083119 0.333771
vt 0.225023 0.598735
vn -0.591347 -0.253922 0.765397
v -1.662437 0.319829 0.138000
vt 0.184513 0.636976
vn -0.730319 -0.019427 0.682831
v -1.604825 -0.008485 0.178001
vt 0.196797 0.580347
vn -0.520851 -0.750891 0.406051
v -1.811546 0.004190 -0.122109
vt 0.135325 0.580870
vn -0.444166 -0.825090 0.349202
v -1.894539 0.183299 -0.063736
vt 0.133165 0.614876
vn -0.738816 -0.221382 0.636506
v -0.893322 1.232584 0.850250
vt 0.360614 0.791449
vn -0.432596 -0.014702 0.901468
v -1.238007 1.200475 0.531143
vt 0.281991 0.786135
vn -0.642246 -0.014681 0.766358
v -1.557789 1.142412 0.302739
vt 0.216006 0.776424
vn -0.716698 0.001999 0.697380
v -1.881660 0.903735 -0.131622
vt 0.125151 0.735230
vn -0.868692 0.037309 0.493946
v -0.548988 1.125523 0.948918
vt 0.420257 0.771815
vn -0.111189 0.002319 0.993797
v -1.617523 1.423797 0.198044
vt 0.196149 0.824324
vn -0.766678 0.025290 0.641534
v -1.813087 1.231381 -0.055313
vt 0.141659 0.791396
vn -0.875887 -0.011974 0.482368
v -1.989899 0.934072 -0.383819
vt 0.080372 0.740074
vn -0.991504 0.094276 -0.089624
v -2.000153 0.041110 -0.373245
vt 0.079959 0.588331
vn -0.797789 -0.601864 -0.035957
v -2.051910 0.441900 -0.414413
vt 0.071144 0.654900
vn -0.973969 0.218605 -0.059969
v -1.963387 0.595458 -0.331055
vt 0.087071 0.683579
vn -0.982082 0.156358 0.105196
v -1.897667 0.734782 -0.491257
vt 0.057321 0.708323
vn -0.561099 0.080675 -0.823808
v -1.921623 0.981951 -0.494552
vt 0.060633 0.750816
vn -0.556429 0.107495 -0.823913
v -1.925102 0.621962 -0.533676
vt 0.050557 0.689876
vn -0.611674 0.164711 -0.773773
v -1.912407 0.536938 -0.533646
vt 0.048179 0.676227
vn -0.529754 0.421644 -0.735919
v -1.949219 0.219787 -0.562424
vt 0.044415 0.616944
vn -0.520251 -0.270888 -0.809913
v -1.875984 0.007595 -0.482071
vt 0.053613 0.577526
vn -0.227114 -0.793635 -0.564414
v -1.949486 0.455206 -0.582962
vt 0.040605 0.658987
vn -0.579634 0.278066 -0.765966
v -1.381227 1.685122 0.452117
vt 0.255333 0.868064
vn -0.713519 0.023878 0.700228
v -1.841335 1.744305 -0.032867
vt 0.143411 0.879396
vn -0.800267 0.046709 0.597821
v -1.717896 2.164968 0.054566
vt 0.169301 0.950684
vn -0.689474 0.403551 0.601474
v -1.941170 2.128802 -0.252685
vt 0.106911 0.945599
vn -0.946775 0.236702 0.218151
v -1.838898 2.321008 -0.313507
vt 0.105570 0.982793
vn -0.295119 0.889297 -0.349364
v -1.681061 2.349508 -0.131759
vt 0.145680 0.989228
vn 0.220892 0.971635 0.084447
v -1.607925 2.263094 -0.053253
vt 0.167385 0.981636
vn 0.164412 0.976336 -0.140485
v -1.543846 2.298775 0.032975
vt 0.185664 0.983815
vn -0.305055 0.922693 -0.235751
v -1.432583 2.383970 0.184904
vt 0.219101 0.990048
vn -0.283706 0.957780 0.046564
v -1.930321 2.091293 -0.413131
vt 0.080114 0.943244
vn -0.662747 0.171512 -0.728938
v -1.919052 1.902808 -0.406357
vt 0.079719 0.911018
vn -0.646977 0.401625 -0.648165
v -2.022438 1.762108 -0.298401
vt 0.090784 0.880155
vn -0.923501 0.298807 0.240542
v -1.887260 1.165643 -0.447067
vt 0.072777 0.781113
vn -0.863791 -0.052120 -0.501147
v -1.980049 1.323931 -0.538147
vt 0.053423 0.809566
vn -0.787528 -0.399786 -0.469010
v -1.991928 1.575665 -0.543426
vt 0.051195 0.851595
vn -0.701549 0.144300 -0.697858
v -1.974335 1.777104 -0.468368
vt 0.064174 0.887049
vn -0.631516 0.421695 -0.650662
v -1.414522 2.236174 0.284083
vt 0.232330 0.963152
vn -0.738557 0.288273 0.609453
v -1.226982 2.413987 0.434235
vt 0.272713 0.994304
vn -0.129624 0.980493 0.147756
v -1.221680 2.309239 0.600830
vt 0.293211 0.970147
vn -0.429227 0.493367 0.756540
v -1.049385 2.312727 0.576661
vt 0.315193 0.984938
vn 0.446132 0.708966 0.546199
v -1.111504 2.124475 0.696679
vt 0.319218 0.942254
vn -0.485188 0.288403 0.825480
v -1.066292 1.783184 0.752243
vt 0.328764 0.883875
vn -0.557811 0.024080 0.829619
v -1.105255 1.466393 0.706002
vt 0.318231 0.831038
vn -0.658530 -0.077493 0.748554
v -0.976135 2.209694 0.604500
vt 0.331321 0.972640
vn 0.219403 0.974868 0.038668
v -0.627785 2.316047 0.920536
vt 0.409042 0.968776
vn -0.243832 0.485843 0.839346
v -0.735315 2.358494 0.762323
vt 0.382449 0.985458
vn -0.258806 0.960093 -0.106025
v -0.468557 2.380862 0.878537
vt 0.434219 0.982725
vn 0.189043 0.926359 0.325763
v -0.422981 1.953755 0.948048
vt 0.442989 0.909698
vn -0.031487 0.001130 0.999503
v -0.191586 1.671236 0.903052
vt 0.480769 0.861663
vn -0.035459 -0.056403 0.997778
v 0.166275 1.918755 0.950848
vt 0.541080 0.903112
vn 0.114502 0.040101 0.992613
v -0.149471 2.231946 0.879784
vt 0.487878 0.958439
vn -0.110060 0.671536 0.732753
v 0.132355 2.299633 0.927779
vt 0.534230 0.964110
vn 0.214745 0.602577 0.768626
v -0.067574 2.321008 0.783804
vt 0.501300 0.983119
vn -0.400860 0.914806 -0.049417
v 0.129841 2.349508 0.794225
vt 0.538186 0.984944
vn 0.314689 0.944908 -0.090105
v 0.266922 2.221613 0.804484
vt 0.563924 0.959449
vn -0.181232 0.945858 0.269273
v 0.318768 1.949455 0.894192
vt 0.568622 0.909188
vn 0.263907 0.140746 0.954224
v 0.405991 2.408149 0.801131
vt 0.590831 0.987872
vn -0.129350 0.935418 0.329032
v 0.503277 2.368813 0.741508
vt 0.611426 0.986987
vn 0.091039 0.995815 0.007973
v 0.675064 2.413987 0.609991
vt 0.648633 0.994006
vn 0.152673 0.987781 0.031291
v 0.844921 2.312727 0.462305
vt 0.687652 0.983213
vn 0.471629 0.814145 -0.338724
v 0.922325 2.209694 0.403435
vt 0.706904 0.973056
vn 0.105969 0.985761 -0.130558
v 1.112747 2.330539 0.250487
vt 0.748430 0.986475
vn -0.013173 0.991014 0.133110
v 0.300491 2.341805 0.806951
vt 0.572680 0.978468
vn -0.721951 0.597897 0.348290
# Faces (1 to 280)
g IceWall_Bunker_New_0
f -278/-278/-278 -279/-279/-279 -280/-280/-280
f -280/-280/-280 -277/-277/-277 -278/-278/-278
f -276/-276/-276 -277/-277/-277 -280/-280/-280
f -276/-276/-276 -275/-275/-275 -277/-277/-277
f -274/-274/-274 -276/-276/-276 -280/-280/-280
f -279/-279/-279 -274/-274/-274 -280/-280/-280
f -274/-274/-274 -279/-279/-279 -273/-273/-273
f -274/-274/-274 -272/-272/-272 -276/-276/-276
f -272/-272/-272 -274/-274/-274 -273/-273/-273
f -271/-271/-271 -272/-272/-272 -273/-273/-273
f -271/-271/-271 -270/-270/-270 -272/-272/-272
f -270/-270/-270 -269/-269/-269 -272/-272/-272
f -272/-272/-272 -269/-269/-269 -276/-276/-276
f -268/-268/-268 -276/-276/-276 -269/-269/-269
f -270/-270/-270 -267/-267/-267 -269/-269/-269
f -269/-269/-269 -267/-267/-267 -268/-268/-268
f -267/-267/-267 -270/-270/-270 -266/-266/-266
f -266/-266/-266 -270/-270/-270 -265/-265/-265
f -265/-265/-265 -270/-270/-270 -271/-271/-271
f -265/-265/-265 -264/-264/-264 -266/-266/-266
f -264/-264/-264 -263/-263/-263 -266/-266/-266
f -266/-266/-266 -263/-263/-263 -267/-267/-267
f -264/-264/-264 -265/-265/-265 -262/-262/-262
f -262/-262/-262 -265/-265/-265 -261/-261/-261
f -261/-261/-261 -265/-265/-265 -260/-260/-260
f -260/-260/-260 -265/-265/-265 -271/-271/-271
f -262/-262/-262 -259/-259/-259 -264/-264/-264
f -258/-258/-258 -264/-264/-264 -259/-259/-259
f -261/-261/-261 -257/-257/-257 -262/-262/-262
f -263/-263/-263 -256/-256/-256 -267/-267/-267
f -256/-256/-256 -268/-268/-268 -267/-267/-267
f -255/-255/-255 -256/-256/-256 -263/-263/-263
f -256/-256/-256 -254/-254/-254 -268/-268/-268
f -253/-253/-253 -255/-255/-255 -263/-263/-263
f -264/-264/-264 -253/-253/-253 -263/-263/-263
f -264/-264/-264 -258/-258/-258 -253/-253/-253
f -252/-252/-252 -255/-255/-255 -253/-253/-253
f -252/-252/-252 -253/-253/-253 -258/-258/-258
f -254/-254/-254 -256/-256/-256 -251/-251/-251
f -250/-250/-250 -254/-254/-254 -251/-251/-251
f -249/-249/-249 -250/-250/-250 -251/-251/-251
f -248/-248/-248 -254/-254/-254 -250/-250/-250
f -248/-248/-248 -247/-247/-247 -254/-254/-254
f -247/-247/-247 -246/-246/-246 -254/-254/-254
f -252/-252/-252 -245/-245/-245 -255/-255/-255
f -245/-245/-245 -244/-244/-244 -255/-255/-255
f -244/-244/-244 -243/-243/-243 -255/-255/-255
f -255/-255/-255 -243/-243/-243 -256/-256/-256
f -256/-256/-256 -243/-243/-243 -251/-251/-251
f -242/-242/-242 -251/-251/-251 -243/-243/-243
f -249/-249/-249 -251/-251/-251 -242/-242/-242
f -252/-252/-252 -241/-241/-241 -245/-245/-245
f -243/-243/-243 -244/-244/-244 -240/-240/-240
f -240/-240/-240 -242/-242/-242 -243/-243/-243
f -240/-240/-240 -244/-244/-244 -239/-239/-239
f -239/-239/-239 -244/-244/-244 -238/-238/-238
f -244/-244/-244 -245/-245/-245 -238/-238/-238
f -238/-238/-238 -245/-245/-245 -237/-237/-237
f -237/-237/-237 -245/-245/-245 -236/-236/-236
f -235/-235/-235 -236/-236/-236 -245/-245/-245
f -235/-235/-235 -245/-245/-245 -241/-241/-241
f -234/-234/-234 -246/-246/-246 -247/-247/-247
f -246/-246/-246 -234/-234/-234 -233/-233/-233
f -232/-232/-232 -246/-246/-246 -233/-233/-233
f -233/-233/-233 -231/-231/-231 -232/-232/-232
f -230/-230/-230 -232/-232/-232 -231/-231/-231
f -229/-229/-229 -232/-232/-232 -230/-230/-230
f -229/-229/-229 -228/-228/-228 -232/-232/-232
f -232/-232/-232 -228/-228/-228 -276/-276/-276
f -276/-276/-276 -228/-228/-228 -227/-227/-227
f -227/-227/-227 -275/-275/-275 -276/-276/-276
f -268/-268/-268 -232/-232/-232 -276/-276/-276
f -268/-268/-268 -254/-254/-254 -232/-232/-232
f -232/-232/-232 -254/-254/-254 -246/-246/-246
f -224/-224/-224 -225/-225/-225 -226/-226/-226
f -226/-226/-226 -225/-225/-225 -252/-252/-252
f -223/-223/-223 -225/-225/-225 -224/-224/-224
f -241/-241/-241 -225/-225/-225 -223/-223/-223
f -225/-225/-225 -241/-241/-241 -252/-252/-252
f -224/-224/-224 -226/-226/-226 -222/-222/-222
f -258/-258/-258 -226/-226/-226 -252/-252/-252
f -222/-222/-222 -226/-226/-226 -221/-221/-221
f -221/-221/-221 -226/-226/-226 -220/-220/-220
f -220/-220/-220 -226/-226/-226 -219/-219/-219
f -219/-219/-219 -226/-226/-226 -258/-258/-258
f -219/-219/-219 -258/-258/-258 -218/-218/-218
f -259/-259/-259 -218/-218/-218 -258/-258/-258
f -217/-217/-217 -218/-218/-218 -259/-259/-259
f -217/-217/-217 -259/-259/-259 -262/-262/-262
f -218/-218/-218 -217/-217/-217 -216/-216/-216
f -216/-216/-216 -217/-217/-217 -215/-215/-215
f -215/-215/-215 -214/-214/-214 -216/-216/-216
f -213/-213/-213 -218/-218/-218 -216/-216/-216
f -214/-214/-214 -213/-213/-213 -216/-216/-216
f -215/-215/-215 -217/-217/-217 -212/-212/-212
f -212/-212/-212 -217/-217/-217 -211/-211/-211
f -217/-217/-217 -262/-262/-262 -211/-211/-211
f -214/-214/-214 -215/-215/-215 -210/-210/-210
f -209/-209/-209 -210/-210/-210 -215/-215/-215
f -209/-209/-209 -208/-208/-208 -210/-210/-210
f -211/-211/-211 -262/-262/-262 -257/-257/-257
f -209/-209/-209 -215/-215/-215 -207/-207/-207
f -207/-207/-207 -215/-215/-215 -206/-206/-206
f -205/-205/-205 -206/-206/-206 -215/-215/-215
f -204/-204/-204 -205/-205/-205 -215/-215/-215
f -204/-204/-204 -215/-215/-215 -212/-212/-212
f -206/-206/-206 -203/-203/-203 -207/-207/-207
f -202/-202/-202 -207/-207/-207 -203/-203/-203
f -201/-201/-201 -207/-207/-207 -202/-202/-202
f -209/-209/-209 -207/-207/-207 -201/-201/-201
f -209/-209/-209 -201/-201/-201 -208/-208/-208
f -208/-208/-208 -201/-201/-201 -200/-200/-200
f -199/-199/-199 -208/-208/-208 -200/-200/-200
f -198/-198/-198 -200/-200/-200 -201/-201/-201
f -201/-201/-201 -197/-197/-197 -198/-198/-198
f -201/-201/-201 -202/-202/-202 -197/-197/-197
f -196/-196/-196 -202/-202/-202 -203/-203/-203
f -196/-196/-196 -203/-203/-203 -195/-195/-195
f -194/-194/-194 -202/-202/-202 -196/-196/-196
f -202/-202/-202 -194/-194/-194 -197/-197/-197
f -208/-208/-208 -199/-199/-199 -193/-193/-193
f -193/-193/-193 -192/-192/-192 -208/-208/-208
f -208/-208/-208 -192/-192/-192 -191/-191/-191
f -190/-190/-190 -191/-191/-191 -192/-192/-192
f -190/-190/-190 -189/-189/-189 -191/-191/-191
f -189/-189/-189 -208/-208/-208 -191/-191/-191
f -188/-188/-188 -189/-189/-189 -190/-190/-190
f -187/-187/-187 -208/-208/-208 -189/-189/-189
f -187/-187/-187 -210/-210/-210 -208/-208/-208
f -188/-188/-188 -186/-186/-186 -189/-189/-189
f -186/-186/-186 -185/-185/-185 -189/-189/-189
f -185/-185/-185 -187/-187/-187 -189/-189/-189
f -185/-185/-185 -184/-184/-184 -187/-187/-187
f -184/-184/-184 -183/-183/-183 -187/-187/-187
f -187/-187/-187 -183/-183/-183 -213/-213/-213
f -184/-184/-184 -182/-182/-182 -183/-183/-183
f -214/-214/-214 -187/-187/-187 -213/-213/-213
f -210/-210/-210 -187/-187/-187 -214/-214/-214
f -181/-181/-181 -184/-184/-184 -185/-185/-185
f -185/-185/-185 -180/-180/-180 -181/-181/-181
f -179/-179/-179 -180/-180/-180 -185/-185/-185
f -179/-179/-179 -185/-185/-185 -186/-186/-186
f -178/-178/-178 -180/-180/-180 -179/-179/-179
f -177/-177/-177 -184/-184/-184 -181/-181/-181
f -176/-176/-176 -184/-184/-184 -177/-177/-177
f -175/-175/-175 -184/-184/-184 -176/-176/-176
f -182/-182/-182 -184/-184/-184 -175/-175/-175
f -174/-174/-174 -182/-182/-182 -175/-175/-175
f -173/-173/-173 -182/-182/-182 -174/-174/-174
f -172/-172/-172 -182/-182/-182 -173/-173/-173
f -183/-183/-183 -182/-182/-182 -172/-172/-172
f -183/-183/-183 -172/-172/-172 -219/-219/-219
f -220/-220/-220 -219/-219/-219 -172/-172/-172
f -173/-173/-173 -220/-220/-220 -172/-172/-172
f -178/-178/-178 -179/-179/-179 -171/-171/-171
f -171/-171/-171 -179/-179/-179 -186/-186/-186
f -183/-183/-183 -219/-219/-219 -218/-218/-218
f -183/-183/-183 -218/-218/-218 -213/-213/-213
f -168/-168/-168 -169/-169/-169 -170/-170/-170
f -167/-167/-167 -169/-169/-169 -168/-168/-168
f -166/-166/-166 -167/-167/-167 -168/-168/-168
f -166/-166/-166 -168/-168/-168 -165/-165/-165
f -165/-165/-165 -168/-168/-168 -170/-170/-170
f -169/-169/-169 -164/-164/-164 -170/-170/-170
f -164/-164/-164 -163/-163/-163 -170/-170/-170
f -169/-169/-169 -167/-167/-167 -162/-162/-162
f -169/-169/-169 -162/-162/-162 -161/-161/-161
f -163/-163/-163 -164/-164/-164 -161/-161/-161
f -164/-164/-164 -169/-169/-169 -161/-161/-161
f -162/-162/-162 -160/-160/-160 -161/-161/-161
f -162/-162/-162 -159/-159/-159 -160/-160/-160
f -162/-162/-162 -167/-167/-167 -159/-159/-159
f -159/-159/-159 -167/-167/-167 -158/-158/-158
f -167/-167/-167 -157/-157/-157 -158/-158/-158
f -158/-158/-158 -157/-157/-157 -156/-156/-156
f -155/-155/-155 -158/-158/-158 -156/-156/-156
f -154/-154/-154 -155/-155/-155 -156/-156/-156
f -153/-153/-153 -155/-155/-155 -154/-154/-154
f -152/-152/-152 -155/-155/-155 -153/-153/-153
f -151/-151/-151 -155/-155/-155 -152/-152/-152
f -158/-158/-158 -155/-155/-155 -150/-150/-150
f -155/-155/-155 -151/-151/-151 -150/-150/-150
f -150/-150/-150 -151/-151/-151 -149/-149/-149
f -158/-158/-158 -150/-150/-150 -148/-148/-148
f -148/-148/-148 -147/-147/-147 -158/-158/-158
f -158/-158/-158 -147/-147/-147 -159/-159/-159
f -159/-159/-159 -147/-147/-147 -160/-160/-160
f -146/-146/-146 -149/-149/-149 -151/-151/-151
f -152/-152/-152 -146/-146/-146 -151/-151/-151
f -146/-146/-146 -145/-145/-145 -149/-149/-149
f -145/-145/-145 -146/-146/-146 -144/-144/-144
f -145/-145/-145 -144/-144/-144 -143/-143/-143
f -142/-142/-142 -145/-145/-145 -143/-143/-143
f -143/-143/-143 -141/-141/-141 -142/-142/-142
f -140/-140/-140 -142/-142/-142 -141/-141/-141
f -141/-141/-141 -139/-139/-139 -140/-140/-140
f -141/-141/-141 -138/-138/-138 -139/-139/-139
f -138/-138/-138 -141/-141/-141 -137/-137/-137
f -136/-136/-136 -138/-138/-138 -137/-137/-137
f -135/-135/-135 -138/-138/-138 -136/-136/-136
f -135/-135/-135 -136/-136/-136 -134/-134/-134
f -138/-138/-138 -133/-133/-133 -139/-139/-139
f -138/-138/-138 -132/-132/-132 -133/-133/-133
f -135/-135/-135 -132/-132/-132 -138/-138/-138
f -142/-142/-142 -140/-140/-140 -131/-131/-131
f -142/-142/-142 -131/-131/-131 -130/-130/-130
f -130/-130/-130 -145/-145/-145 -142/-142/-142
f -149/-149/-149 -145/-145/-145 -130/-130/-130
f -128/-128/-128 -156/-156/-156 -129/-129/-129
f -167/-167/-167 -126/-126/-126 -127/-127/-127
f -123/-123/-123 -124/-124/-124 -125/-125/-125
f -122/-122/-122 -125/-125/-125 -124/-124/-124
f -122/-122/-122 -121/-121/-121 -125/-125/-125
f -120/-120/-120 -121/-121/-121 -122/-122/-122
f -121/-121/-121 -119/-119/-119 -125/-125/-125
f -119/-119/-119 -123/-123/-123 -125/-125/-125
f -123/-123/-123 -119/-119/-119 -118/-118/-118
f -119/-119/-119 -121/-121/-121 -117/-117/-117
f -116/-116/-116 -117/-117/-117 -121/-121/-121
f -120/-120/-120 -116/-116/-116 -121/-121/-121
f -119/-119/-119 -115/-115/-115 -118/-118/-118
f -114/-114/-114 -117/-117/-117 -116/-116/-116
f -114/-114/-114 -113/-113/-113 -117/-117/-117
f -112/-112/-112 -114/-114/-114 -116/-116/-116
f -111/-111/-111 -113/-113/-113 -114/-114/-114
f -112/-112/-112 -111/-111/-111 -114/-114/-114
f -110/-110/-110 -113/-113/-113 -111/-111/-111
f -112/-112/-112 -109/-109/-109 -111/-111/-111
f -111/-111/-111 -109/-109/-109 -108/-108/-108
f -111/-111/-111 -108/-108/-108 -107/-107/-107
f -107/-107/-107 -106/-106/-106 -111/-111/-111
f -106/-106/-106 -110/-110/-110 -111/-111/-111
f -106/-106/-106 -105/-105/-105 -110/-110/-110
f -104/-104/-104 -105/-105/-105 -106/-106/-106
f -105/-105/-105 -104/-104/-104 -103/-103/-103
f -105/-105/-105 -103/-103/-103 -102/-102/-102
f -102/-102/-102 -101/-101/-101 -105/-105/-105
f -105/-105/-105 -101/-101/-101 -110/-110/-110
f -110/-110/-110 -101/-101/-101 -113/-113/-113
f -103/-103/-103 -100/-100/-100 -102/-102/-102
f -101/-101/-101 -99/-99/-99 -113/-113/-113
f -102/-102/-102 -100/-100/-100 -98/-98/-98
f -102/-102/-102 -98/-98/-98 -97/-97/-97
f -101/-101/-101 -102/-102/-102 -97/-97/-97
f -99/-99/-99 -101/-101/-101 -97/-97/-97
f -97/-97/-97 -96/-96/-96 -99/-99/-99
f -99/-99/-99 -96/-96/-96 -95/-95/-95
f -96/-96/-96 -94/-94/-94 -95/-95/-95
f -98/-98/-98 -93/-93/-93 -97/-97/-97
f -96/-96/-96 -92/-92/-92 -94/-94/-94
f -95/-95/-95 -94/-94/-94 -91/-91/-91
f -91/-91/-91 -90/-90/-90 -95/-95/-95
f -90/-90/-90 -91/-91/-91 -89/-89/-89
f -88/-88/-88 -89/-89/-89 -91/-91/-91
f -94/-94/-94 -92/-92/-92 -88/-88/-88
f -88/-88/-88 -91/-91/-91 -94/-94/-94
f -89/-89/-89 -88/-88/-88 -87/-87/-87
f -89/-89/-89 -87/-87/-87 -86/-86/-86
f -85/-85/-85 -89/-89/-89 -86/-86/-86
f -85/-85/-85 -90/-90/-90 -89/-89/-89
f -84/-84/-84 -90/-90/-90 -85/-85/-85
f -84/-84/-84 -95/-95/-95 -90/-90/-90
f -86/-86/-86 -87/-87/-87 -83/-83/-83
f -85/-85/-85 -86/-86/-86 -83/-83/-83
f -82/-82/-82 -85/-85/-85 -83/-83/-83
f -81/-81/-81 -85/-85/-85 -82/-82/-82
f -81/-81/-81 -84/-84/-84 -85/-85/-85
f -82/-82/-82 -115/-115/-115 -81/-81/-81
f -115/-115/-115 -82/-82/-82 -83/-83/-83
f -81/-81/-81 -113/-113/-113 -84/-84/-84
f -87/-87/-87 -88/-88/-88 -80/-80/-80
f -87/-87/-87 -80/-80/-80 -79/-79/-79
f -78/-78/-78 -79/-79/-79 -80/-80/-80
f -80/-80/-80 -77/-77/-77 -78/-78/-78
f -80/-80/-80 -76/-76/-76 -77/-77/-77
f -80/-80/-80 -88/-88/-88 -76/-76/-76
f -113/-113/-113 -95/-95/-95 -84/-84/-84
f -113/-113/-113 -99/-99/-99 -95/-95/-95
f -81/-81/-81 -117/-117/-117 -113/-113/-113
f -75/-75/-75 -78/-78/-78 -77/-77/-77
f -77/-77/-77 -74/-74/-74 -75/-75/-75
f -73/-73/-73 -74/-74/-74 -77/-77/-77
f -72/-72/-72 -73/-73/-73 -77/-77/-77
f -76/-76/-76 -72/-72/-72 -77/-77/-77
f -73/-73/-73 -72/-72/-72 -71/-71/-71
f -72/-72/-72 -70/-70/-70 -71/-71/-71
f -71/-71/-71 -70/-70/-70 -69/-69/-69
f -71/-71/-71 -69/-69/-69 -73/-73/-73
f -73/-73/-73 -68/-68/-68 -74/-74/-74
f -67/-67/-67 -68/-68/-68 -73/-73/-73
f -69/-69/-69 -67/-67/-67 -73/-73/-73
f -66/-66/-66 -67/-67/-67 -69/-69/-69
f -69/-69/-69 -65/-65/-65 -66/-66/-66
f -66/-66/-66 -65/-65/-65 -64/-64/-64
f -64/-64/-64 -67/-67/-67 -66/-66/-66
f -63/-63/-63 -64/-64/-64 -65/-65/-65
f -63/-63/-63 -65/-65/-65 -62/-62/-62
f -72/-72/-72 -61/-61/-61 -70/-70/-70
f -61/-61/-61 -60/-60/-60 -70/-70/-70
f -60/-60/-60 -59/-59/-59 -70/-70/-70
f -69/-69/-69 -59/-59/-59 -65/-65/-65
f -70/-70/-70 -59/-59/-59 -69/-69/-69
f -59/-59/-59 -58/-58/-58 -65/-65/-65
f -65/-65/-65 -58/-58/-58 -62/-62/-62
f -57/-57/-57 -61/-61/-61 -72/-72/-72
f -58/-58/-58 -59/-59/-59 -56/-56/-56
f -55/-55/-55 -58/-58/-58 -56/-56/-56
f -58/-58/-58 -55/-55/-55 -54/-54/-54
f -53/-53/-53 -63/-63/-63 -62/-62/-62
f -62/-62/-62 -52/-52/-52 -53/-53/-53
f -62/-62/-62 -51/-51/-51 -52/-52/-52
f -62/-62/-62 -58/-58/-58 -51/-51/-51
f -51/-51/-51 -58/-58/-58 -54/-54/-54
f -51/-51/-51 -54/-54/-54 -50/-50/-50
f -54/-54/-54 -49/-49/-49 -50/-50/-50
f -50/-50/-50 -48/-48/-48 -51/-51/-51
f -47/-47/-47 -51/-51/-51 -48/-48/-48
f -52/-52/-52 -51/-51/-51 -47/-47/-47
f -52/-52/-52 -46/-46/-46 -53/-53/-53
f -53/-53/-53 -46/-46/-46 -45/-45/-45
f -52/-52/-52 -44/-44/-44 -46/-46/-46
f -44/-44/-44 -52/-52/-52 -47/-47/-47
f -43/-43/-43 -56/-56/-56 -59/-59/-59
f -56/-56/-56 -42/-42/-42 -55/-55/-55
f -41/-41/-41 -42/-42/-42 -56/-56/-56
f -43/-43/-43 -41/-41/-41 -56/-56/-56
f -41/-41/-41 -40/-40/-40 -42/-42/-42
f -41/-41/-41 -39/-39/-39 -40/-40/-40
f -41/-41/-41 -38/-38/-38 -39/-39/-39
f -41/-41/-41 -37/-37/-37 -38/-38/-38
f -41/-41/-41 -36/-36/-36 -37/-37/-37
f -41/-41/-41 -35/-35/-35 -36/-36/-36
f -40/-40/-40 -39/-39/-39 -34/-34/-34
f -40/-40/-40 -34/-34/-34 -33/-33/-33
f -42/-42/-42 -40/-40/-40 -33/-33/-33
f -42/-42/-42 -33/-33/-33 -32/-32/-32
f -55/-55/-55 -42/-42/-42 -32/-32/-32
f -31/-31/-31 -55/-55/-55 -32/-32/-32
f -31/-31/-31 -32/-32/-32 -30/-30/-30
f -32/-32/-32 -29/-29/-29 -30/-30/-30
f -32/-32/-32 -28/-28/-28 -29/-29/-29
f -33/-33/-33 -28/-28/-28 -32/-32/-32
f -31/-31/-31 -54/-54/-54 -55/-55/-55
f -54/-54/-54 -31/-31/-31 -49/-49/-49
f -26/-26/-26 -35/-35/-35 -27/-27/-27
f -25/-25/-25 -26/-26/-26 -27/-27/-27
f -25/-25/-25 -24/-24/-24 -26/-26/-26
f -25/-25/-25 -27/-27/-27 -43/-43/-43
f -23/-23/-23 -25/-25/-25 -43/-43/-43
f -23/-23/-23 -43/-43/-43 -22/-22/-22
f -22/-22/-22 -43/-43/-43 -21/-21/-21
f -25/-25/-25 -20/-20/-20 -24/-24/-24
f -25/-25/-25 -23/-23/-23 -20/-20/-20
f -19/-19/-19 -23/-23/-23 -22/-22/-22
f -19/-19/-19 -22/-22/-22 -61/-61/-61
f -61/-61/-61 -22/-22/-22 -21/-21/-21
f -19/-19/-19 -18/-18/-18 -23/-23/-23
f -18/-18/-18 -20/-20/-20 -23/-23/-23
f -19/-19/-19 -17/-17/-17 -18/-18/-18
f -61/-61/-61 -21/-21/-21 -60/-60/-60
f -21/-21/-21 -43/-43/-43 -60/-60/-60
f -43/-43/-43 -59/-59/-59 -60/-60/-60
f -16/-16/-16 -19/-19/-19 -61/-61/-61
f -16/-16/-16 -61/-61/-61 -15/-15/-15
f -15/-15/-15 -61/-61/-61 -57/-57/-57
f -57/-57/-57 -88/-88/-88 -15/-15/-15
f -88/-88/-88 -14/-14/-14 -15/-15/-15
f -16/-16/-16 -15/-15/-15 -14/-14/-14
f -57/-57/-57 -76/-76/-76 -88/-88/-88
f -16/-16/-16 -14/-14/-14 -13/-13/-13
f -13/-13/-13 -17/-17/-17 -19/-19/-19
f -13/-13/-13 -19/-19/-19 -16/-16/-16
f -12/-12/-12 -13/-13/-13 -14/-14/-14
f -12/-12/-12 -11/-11/-11 -13/-13/-13
f -12/-12/-12 -10/-10/-10 -11/-11/-11
f -12/-12/-12 -9/-9/-9 -10/-10/-10
f -76/-76/-76 -57/-57/-57 -72/-72/-72
f -12/-12/-12 -8/-8/-8 -9/-9/-9
f -12/-12/-12 -14/-14/-14 -8/-8/-8
f -92/-92/-92 -8/-8/-8 -14/-14/-14
f -88/-88/-88 -92/-92/-92 -14/-14/-14
f -96/-96/-96 -8/-8/-8 -92/-92/-92
f -7/-7/-7 -8/-8/-8 -96/-96/-96
f -96/-96/-96 -6/-6/-6 -7/-7/-7
f -96/-96/-96 -5/-5/-5 -6/-6/-6
f -97/-97/-97 -5/-5/-5 -96/-96/-96
f -97/-97/-97 -4/-4/-4 -5/-5/-5
f -97/-97/-97 -3/-3/-3 -4/-4/-4
f -2/-2/-2 -3/-3/-3 -97/-97/-97
f -97/-97/-97 -93/-93/-93 -2/-2/-2
f -7/-7/-7 -1/-1/-1 -8/-8/-8
f -1/-1/-1 -9/-9/-9 -8/-8/-8
f -81/-81/-81 -115/-115/-115 -119/-119/-119
f -119/-119/-119 -117/-117/-117 -81/-81/-81
f -35/-35/-35 -41/-41/-41 -27/-27/-27
f -27/-27/-27 -41/-41/-41 -43/-43/-43

